<?xml version="1.0" encoding="UTF-8" standalone="no"?> <svg xmlns="http://www.w3.org/2000/svg" viewBox="0 0 64 64"><g id="Layer_42" data-name="Layer 42"><path d="M32.69,20H28V12.86a2,2,0,0,0-2-2H14.39a2,2,0,0,0-2,2V20H7.65a2,2,0,0,0-2,2V56.3A5.7,5.7,0,0,0,11.34,62H29a5.71,5.71,0,0,0,5.7-5.7V22A2,2,0,0,0,32.69,20Zm-16.3-5.16H24V20H16.39Zm-2,9.16h16.3v6h-21V24ZM29,58H11.34a1.7,1.7,0,0,1-1.69-1.7V34h21V56.3A1.7,1.7,0,0,1,29,58Z"/><path d="M44.91,16.94a2.58,2.58,0,0,0,.39,0,2,2,0,1,0-.39,0Z"/><path d="M36.18,13.31a1.92,1.92,0,0,0-.35-.18,1.58,1.58,0,0,0-.37-.11,1.71,1.71,0,0,0-.78,0,2,2,0,0,0,0,3.92,2,2,0,0,0,.78,0,2.29,2.29,0,0,0,.37-.12A2,2,0,0,0,36.18,13.31Z"/><path d="M59,13.56a2.08,2.08,0,0,0-2.83,0,2,2,0,1,0,2.83,0Z"/><path d="M50,13.56a2,2,0,1,0,2.83,0A2.08,2.08,0,0,0,50,13.56Z"/><path d="M40.43,12.64a2,2,0,0,0,1.42-3.42,2.08,2.08,0,0,0-2.83,0A2,2,0,0,0,40.43,12.64Z"/><path d="M43.84,7.71a1.9,1.9,0,0,0,.3.72,1.42,1.42,0,0,0,.25.3,2.08,2.08,0,0,0,1,.55,2,2,0,0,0,.78,0,2.08,2.08,0,0,0,1-.55,2,2,0,1,0-3.37-1Z"/><path d="M51.16,6a2,2,0,0,0,1.42-.58,3.76,3.76,0,0,0,.25-.31A1.92,1.92,0,0,0,53,4.76a1.58,1.58,0,0,0,.11-.37,2,2,0,0,0,0-.78,1.88,1.88,0,0,0-.29-.72A2,2,0,0,0,50.77,2a1.9,1.9,0,0,0-.72.3,1.42,1.42,0,0,0-.3.25A2,2,0,0,0,51.16,6Z"/><path d="M38.47,19.71a2,2,0,0,0,3.63.72,2.29,2.29,0,0,0,.3-.72A2,2,0,1,0,38.47,19.71Z"/><path d="M49.75,24.54a2,2,0,1,0,2.83,0A2.08,2.08,0,0,0,49.75,24.54Z"/><path d="M44.38,21.88a2,2,0,1,0,2.83,0A2.06,2.06,0,0,0,44.38,21.88Z"/></g></svg>