<?xml version="1.0" encoding="UTF-8" standalone="no"?> <svg width="64" height="64" viewBox="0 0 64 64" fill="none" xmlns="http://www.w3.org/2000/svg">
<path d="M44.17 31.24C44.7519 30.6628 45.2134 29.9757 45.5275 29.2186C45.8417 28.4616 46.0023 27.6496 46 26.83V21.25C45.9997 20.0902 45.6633 18.9554 45.0315 17.9828C44.3997 17.0103 43.4995 16.2416 42.44 15.77L38.78 14.14C38.2507 13.9036 37.801 13.5191 37.4852 13.033C37.1694 12.5468 37.0009 11.9797 37 11.4V10H38C38.5299 9.99842 39.0377 9.7872 39.4125 9.41247C39.7872 9.03773 39.9984 8.52995 40 8V4C39.9984 3.47005 39.7872 2.96227 39.4125 2.58753C39.0377 2.2128 38.5299 2.00158 38 2H26C25.47 2.00158 24.9623 2.2128 24.5875 2.58753C24.2128 2.96227 24.0016 3.47005 24 4V8C24.0016 8.52995 24.2128 9.03773 24.5875 9.41247C24.9623 9.7872 25.47 9.99842 26 10H27V11.4C26.9991 11.9797 26.8306 12.5468 26.5148 13.033C26.199 13.5191 25.7493 13.9036 25.22 14.14L21.56 15.77C20.5004 16.2416 19.6003 17.0103 18.9685 17.9828C18.3367 18.9554 18.0003 20.0902 18 21.25V26.83C17.9977 27.6496 18.1583 28.4616 18.4724 29.2186C18.7866 29.9757 19.248 30.6628 19.83 31.24C20.2013 31.6118 20.4958 32.053 20.6965 32.5386C20.8973 33.0242 21.0004 33.5446 21 34.07V37.93C21.0006 38.4564 20.8966 38.9776 20.6941 39.4635C20.4915 39.9493 20.1944 40.39 19.82 40.76L19.76 40.83C19.1995 41.3842 18.7551 42.0447 18.4529 42.7727C18.1507 43.5007 17.9967 44.2817 18 45.07V57C18 58.3261 18.5268 59.5979 19.4645 60.5355C20.4021 61.4732 21.6739 62 23 62H41C42.3261 62 43.5978 61.4732 44.5355 60.5355C45.4732 59.5979 46 58.3261 46 57V45.07C46.0028 44.2827 45.8496 43.5027 45.5492 42.7749C45.2489 42.0472 44.8073 41.3861 44.25 40.83L44.17 40.76C43.7987 40.3882 43.5042 39.947 43.3034 39.4614C43.1027 38.9758 42.9996 38.4554 43 37.93V34.07C42.9996 33.5446 43.1027 33.0242 43.3034 32.5386C43.5042 32.053 43.7987 31.6118 44.17 31.24V31.24ZM26 8V4H38V8H26ZM26.03 15.97C26.9129 15.5757 27.6631 14.9345 28.19 14.1237C28.7169 13.3129 28.9982 12.367 29 11.4V10H35V11.4C35.0017 12.367 35.283 13.3129 35.81 14.1237C36.3369 14.9345 37.087 15.5757 37.97 15.97L40.29 17H23.71L26.03 15.97ZM44 45.07V57C43.9976 57.7949 43.6808 58.5566 43.1187 59.1187C42.5566 59.6808 41.7949 59.9976 41 60H23C22.2051 59.9976 21.4434 59.6808 20.8813 59.1187C20.3192 58.5566 20.0024 57.7949 20 57V45.07C19.9993 44.5436 20.1033 44.0224 20.3059 43.5365C20.5085 43.0507 20.8056 42.61 21.18 42.24L21.24 42.17C21.8005 41.6158 22.2449 40.9553 22.5471 40.2273C22.8493 39.4993 23.0033 38.7183 23 37.93V34.07C23.0005 32.9885 22.7067 31.9272 22.15 31H41.85C41.2933 31.9272 40.9995 32.9885 41 34.07V37.93C40.9972 38.7173 41.1504 39.4973 41.4508 40.2251C41.7511 40.9528 42.1927 41.6139 42.75 42.17L42.83 42.24C43.2013 42.6118 43.4958 43.053 43.6965 43.5386C43.8973 44.0242 44.0004 44.5446 44 45.07ZM20.61 29C20.2127 28.3458 20.0018 27.5954 20 26.83V21.25C20.0033 20.4469 20.2472 19.6632 20.7 19H43.3C43.7528 19.6632 43.9966 20.4469 44 21.25V26.83C43.9982 27.5954 43.7873 28.3458 43.39 29H20.61Z" fill="black"/>
</svg>
