<?xml version="1.0" encoding="UTF-8"?>
<!DOCTYPE svg PUBLIC "-//W3C//DTD SVG 1.1//EN" "http://www.w3.org/Graphics/SVG/1.1/DTD/svg11.dtd">
<!-- Creator: CorelDRAW -->
<svg xmlns="http://www.w3.org/2000/svg" xml:space="preserve" width="1.70666in" height="1.70666in" version="1.1" style="shape-rendering:geometricPrecision; text-rendering:geometricPrecision; image-rendering:optimizeQuality; fill-rule:evenodd; clip-rule:evenodd"
viewBox="0 0 1707 1707"
 xmlns:xlink="http://www.w3.org/1999/xlink">
 <defs>
  <style type="text/css">
   <![CDATA[
    .fil0 {fill:black}
   ]]>
  </style>
 </defs>
 <g id="Layer_x0020_1">
  <metadata id="CorelCorpID_0Corel-Layer"/>
  <path class="fil0" d="M517 1422c-14,0 -26,-12 -26,-26l0 -99c0,-34 52,-34 52,0l0 99c0,14 -12,26 -26,26zm-363 100c31,-72 279,-638 290,-658 90,-159 453,-158 541,0 1,1 1,2 1,2l290 656 127 0c15,0 26,12 26,26l0 124c0,14 -11,26 -26,26l-1377 0c-14,0 -26,-12 -26,-26l0 -124c0,-14 12,-26 26,-26l128 0zm1065 0l-279 -633c-32,-56 -120,-92 -225,-92 -105,0 -193,36 -225,92l-280 633 1009 0zm-275 -1084l-246 0c-92,0 -166,-74 -166,-166l0 -237c0,-14 11,-26 26,-26l1044 0c58,0 105,47 105,105 0,58 -47,105 -105,105l-492 0 0 53c0,92 -75,166 -166,166zm-361 -377l0 38 475 0 0 -38 -475 0zm0 90l0 121c0,63 52,114 115,114l246 0c63,0 114,-51 114,-114l0 -121 -475 0zm527 16l492 0c70,0 70,-106 0,-106l-492 0 0 106zm-458 484c-14,0 -26,-12 -26,-26l0 -99c0,-34 52,-34 52,0l0 99c0,14 -12,26 -26,26zm96 0c-14,0 -25,-12 -25,-26l0 -99c0,-34 51,-34 51,0l0 99c0,14 -11,26 -26,26zm97 0c-14,0 -26,-12 -26,-26l0 -99c0,-34 52,-34 52,0l0 99c0,14 -12,26 -26,26zm-793 995l1326 0 0 -72 -1326 0 0 72zm474 -563c-14,0 -26,-12 -26,-26l0 -99c0,-34 52,-34 52,0l0 99c0,14 -12,26 -26,26zm61 158c-14,0 -25,-12 -25,-26l0 -99c0,-34 51,-34 51,0l0 99c0,14 -11,26 -26,26zm110 -193c-14,0 -26,-12 -26,-26l0 -99c0,-34 52,-34 52,0l0 99c0,14 -12,26 -26,26zm88 281c-14,0 -26,-12 -26,-26l0 -99c0,-34 52,-34 52,0l0 99c0,14 -12,26 -26,26zm39 -259c-14,0 -26,-12 -26,-26l0 -99c0,-34 52,-34 52,0l0 99c0,14 -11,26 -26,26zm88 285c-14,0 -26,-12 -26,-26l0 -99c0,-34 52,-34 52,0l0 99c0,14 -12,26 -26,26z"/>
 </g>
</svg>
